<svg width="20" height="21" viewBox="0 0 20 21" fill="none" xmlns="http://www.w3.org/2000/svg">
<path d="M5.84764 20.0942C2.6229 20.0942 0 17.4713 0 14.2466V5.94188C0 2.71769 2.6229 0.0942383 5.84764 0.0942383H14.1524C17.3771 0.0942383 20 2.71769 20 5.94188V14.2466C20 17.4713 17.3771 20.0942 14.1524 20.0942H5.84764ZM1.86417 5.94188V14.2466C1.86417 16.443 3.65129 18.2301 5.84764 18.2301H14.1524C16.3487 18.2301 18.1353 16.443 18.1353 14.2466V5.94188C18.1353 3.74552 16.3487 1.9584 14.1524 1.9584H5.84764C3.65129 1.9584 1.86417 3.74552 1.86417 5.94188ZM4.83042 10.0945C4.83042 7.24384 7.1496 4.92465 9.99972 4.92465C12.8504 4.92465 15.1696 7.24384 15.1696 10.0945C15.1696 12.9446 12.8504 15.2638 9.99972 15.2638C7.1496 15.2638 4.83042 12.9446 4.83042 10.0945ZM6.69514 10.0945C6.69514 11.9168 8.17743 13.3991 9.99972 13.3991C11.8226 13.3991 13.3049 11.9168 13.3049 10.0945C13.3049 8.27167 11.8226 6.78882 9.99972 6.78882C8.17743 6.78882 6.69514 8.27167 6.69514 10.0945ZM14.0976 4.76051C14.0976 4.07213 14.6554 3.51439 15.3438 3.51439C16.0322 3.51439 16.5899 4.07213 16.5899 4.76051C16.5899 5.4489 16.0322 6.00664 15.3438 6.00664C14.6554 6.00664 14.0976 5.4489 14.0976 4.76051Z" fill="black"/>
</svg>
