<svg width="22" height="19" viewBox="0 0 22 19" fill="none" xmlns="http://www.w3.org/2000/svg">
<path d="M6.91883 18.0942C15.2211 18.0942 19.7612 11.1698 19.7612 5.16544C19.7612 4.96869 19.7572 4.77279 19.7482 4.578C20.6295 3.93667 21.3956 3.13632 22 2.22524C21.1912 2.58687 20.3209 2.83068 19.4079 2.94053C20.3397 2.37815 21.0552 1.48798 21.3926 0.426993C20.5204 0.947486 19.5547 1.32603 18.5266 1.52989C17.703 0.646702 16.53 0.0942383 15.232 0.0942383C12.7391 0.0942383 10.7177 2.12929 10.7177 4.63796C10.7177 4.99463 10.7574 5.3413 10.8347 5.67404C7.08356 5.4842 3.75717 3.67594 1.53121 0.926477C1.14321 1.59783 0.919958 2.37815 0.919958 3.21031C0.919958 4.78688 1.71679 6.17849 2.92847 6.99275C2.18822 6.9698 1.49258 6.76498 0.884224 6.42424C0.883256 6.44321 0.883256 6.46226 0.883256 6.48219C0.883256 8.68307 2.43927 10.5204 4.50436 10.937C4.12527 11.0409 3.72636 11.0969 3.31452 11.0969C3.02377 11.0969 2.74094 11.0679 2.46602 11.0149C3.04066 12.8202 4.70686 14.134 6.68264 14.171C5.13753 15.3898 3.1915 16.1161 1.07669 16.1161C0.712539 16.1161 0.35332 16.0951 0 16.0532C1.99761 17.3419 4.36947 18.0942 6.91883 18.0942Z" fill="black"/>
</svg>
