<svg width="22" height="16" viewBox="0 0 22 16" fill="none" xmlns="http://www.w3.org/2000/svg">
<path d="M11.0004 15.0942C10.9316 15.0942 4.10075 15.0891 2.40496 14.6467C1.45791 14.4004 0.712441 13.6746 0.459448 12.7525C0.00525153 11.1 0 7.62911 0 7.59424C0 7.55937 0.00525153 4.0885 0.459448 2.43674C0.712148 1.51498 1.45762 0.788868 2.40496 0.541754C4.10075 0.0993534 10.9316 0.0942383 11.0004 0.0942383C11.0692 0.0942383 17.8992 0.0993534 19.595 0.541754C20.5424 0.788868 21.2878 1.51498 21.5406 2.43674C21.9947 4.0885 22 7.55937 22 7.59424C22 7.62911 21.9947 11.1 21.5406 12.7525C21.2876 13.6746 20.5421 14.4004 19.595 14.6467C17.8992 15.0891 11.0692 15.0942 11.0004 15.0942ZM8.79985 4.38026V10.8089L14.5155 7.59424L8.79985 4.38026Z" fill="black"/>
</svg>
