<svg width="22" height="23" viewBox="0 0 22 23" fill="none" xmlns="http://www.w3.org/2000/svg">
<path d="M9.28107 22.0942C6.72014 21.6891 4.37114 20.3727 2.66848 18.3875C0.947684 16.3813 0 13.8149 0 11.1612C0 8.20522 1.14423 5.42609 3.2219 3.33576C5.29958 1.24543 8.0619 0.0942383 11 0.0942383C13.9381 0.0942383 16.7004 1.24543 18.7781 3.33576C20.8558 5.42609 22 8.20522 22 11.1612C22 13.8149 21.0523 16.3813 19.3315 18.3875C17.6288 20.3728 15.2807 21.6888 12.7199 22.0931L12.7189 14.3605H15.2817L15.7691 11.1612H12.7189V9.08505L12.719 9.06454C12.7239 8.42687 12.9632 7.35712 14.5115 7.35712H15.8981V4.63363C15.889 4.63225 14.6284 4.41736 13.4359 4.41736C10.8343 4.41736 9.28107 6.02691 9.28107 8.7229V11.1612H6.48808V14.3605H9.28107V22.0942Z" fill="black"/>
</svg>
